<svg xmlns="http://www.w3.org/2000/svg" viewBox="0 0 512 512">
  <defs>
    <linearGradient id="g" x1="0" x2="1" y1="0" y2="1">
      <stop offset="0" stop-color="#2563eb"/>
      <stop offset="1" stop-color="#7c3aed"/>
    </linearGradient>
    <filter id="shadow" x="-20%" y="-20%" width="140%" height="140%">
      <feDropShadow dx="0" dy="6" stdDeviation="12" flood-color="#000" flood-opacity="0.25"/>
    </filter>
  </defs>
  <rect width="512" height="512" rx="112" fill="url(#g)"/>
  <g filter="url(#shadow)">
    <!-- Stylized play + heart mark -->
    <path d="M208 164c-9 0-16 7-16 16v152c0 12 13 19 23 12l128-76c10-6 10-19 0-25l-128-76c-2-2-5-3-7-3z" fill="#fff"/>
    <path d="M308 332c0-24 20-44 44-44 11 0 22 4 30 12 8-8 19-12 30-12 24 0 44 20 44 44 0 42-58 66-74 78-3 2-7 2-10 0-16-12-74-36-74-78z" fill="#f43f5e"/>
  </g>
  <text x="50%" y="86%" text-anchor="middle" font-family="Inter, ui-sans-serif, system-ui" font-size="64" fill="#ffffff" opacity="0.9">M</text>
</svg>

